<svg width="352" height="223" viewBox="0 0 352 223" fill="none" xmlns="http://www.w3.org/2000/svg">
<path d="M61.5 53.5C48 79.5 33 104.5 33 136.5C33 141.791 17.5669 134.099 17 128.838C14 101 61.5 53.5 61.5 53.5Z" fill="black"/>
<path d="M70.8113 67.0706C57.3113 93.0706 42.5 125 42.5 157C42.5 162.291 26.8782 147.669 26.3113 142.409C23.3113 114.571 70.8113 67.0706 70.8113 67.0706Z" fill="black"/>
<path d="M83.8113 85.0706C70.3114 111.071 55.3113 136.071 55.3113 168.071C55.3113 173.361 39.8782 165.669 39.3113 160.409C36.3113 132.571 83.8113 85.0706 83.8113 85.0706Z" fill="black"/>
<path d="M97.8113 102.071C84.3114 128.071 69.3113 153.071 69.3113 185.071C69.3113 190.361 53.8782 182.669 53.3113 177.409C50.3113 149.571 97.8113 102.071 97.8113 102.071Z" fill="black"/>
<path d="M110.5 111C110.5 111 77.5 166.5 85.5 198C86.831 203.241 66.9933 196.947 67.5 191.5C71.5 148.5 110.5 111 110.5 111Z" fill="black"/>
<path d="M198 185C204.492 193.5 191 210.5 202.5 216C207 221 186.985 222.303 188.5 217C191 199 198 185 198 185Z" fill="black"/>
<path d="M182.435 178C183.5 186.5 170.5 208 178 213C182.5 218 166.92 216.468 168.435 211.164C170.935 193.164 182.435 178 182.435 178Z" fill="black"/>
<path d="M170 166.5C170 166.5 150.58 206 158.08 211C162.58 216 147.53 227.329 148.515 209.164C149.5 191 170 166.5 170 166.5Z" fill="black"/>
<path d="M154.5 157.5C154.5 157.5 134.122 200.5 141.622 205.5C146.122 210.5 131.072 221.829 132.057 203.664C133.042 185.5 154.5 157.5 154.5 157.5Z" fill="black"/>
<path d="M145 148.5C145 148.5 125.411 174.372 125.411 204C129.911 209 114.455 227.829 115.846 202.164C117.238 176.5 145 148.5 145 148.5Z" fill="black"/>
<path d="M134.5 136.5C134.5 136.5 112.536 165.872 112.536 195.5C117.036 200.5 102.971 225.829 102.971 193.664C102.971 161.5 134.5 136.5 134.5 136.5Z" fill="black"/>
<path d="M120.5 124.5C120.5 124.5 89.9351 181.947 99.5 193.164C105.002 199.618 90.6924 226.329 87.8462 193.164C85 160 120.5 124.5 120.5 124.5Z" fill="black"/>
<path fill-rule="evenodd" clip-rule="evenodd" d="M15 67.4999C37.5 36.9999 66.5 12.9999 113.5 4.99995C160.5 -3.00004 178.5 -1.51392 249.5 18.4999C308.5 35.1311 348.5 87 351 124C353.5 161 338.1 198.476 301 210C281.5 219.5 166.143 222.847 136.5 219.5C106.857 216.153 87 211 69 205C51 199 23.0604 188.374 9.5 163.5C-0.71846 144.756 0.999969 109.5 0.999969 109.5C0.999969 109.5 1.49994 97.9999 15 67.4999ZM308.5 193.5C279.5 208 277.032 204.265 247 208C227.801 210.388 216.845 210.246 197.5 210C160.155 209.526 104 193.5 104 193.5C104 193.5 41.9781 177.215 30.5 140.5C23.3765 117.714 18.9482 100.591 28 78.5C38.4724 52.9426 53.5098 42.0279 77 27.5C116.487 3.07879 144.5 11 195 13C239.637 14.7678 261 32 301 57C328.812 74.3827 347.323 91.337 348.5 124C349.414 149.374 348.5 170.5 308.5 193.5Z" fill="black"/>
<path d="M154 110.5C151.533 115.355 150 115 147.5 117C147.5 117 141.5 118.284 141.5 110C141.5 104.5 145.477 101.645 151 101.645C156.523 101.645 154.533 106.5 154 110.5Z" fill="black"/>
<path d="M264.141 83.3298C260.378 83.011 259.896 81.7329 257.69 80.4747C257.69 80.4747 254.332 76.329 258.894 73.6758C261.922 71.9144 265.251 74.0207 267.691 78.2153C270.131 82.4099 266.579 82.4536 264.141 83.3298Z" fill="black"/>
<path d="M305.436 167.857C306.291 170.965 305.637 172.498 305.476 175.301C305.476 175.301 303.854 181.615 300.939 180.633C299.004 179.982 299.375 175.56 301.284 169.889C303.193 164.218 304.213 166.836 305.436 167.857Z" fill="black"/>
<path d="M181.5 140C179.5 147 203 153.5 174.5 152C174.5 152 164 146.639 164 138.355C164 132.855 165.993 128.124 173 129C197 132 181.5 134 181.5 140Z" fill="black"/>
<path d="M93.5 65.5C92.8337 70.5 93.5 74.5 86 73C86 73 74 62.6393 74 54.3551C74 48.8551 81.4772 42 87 42C92.5228 42 94.033 61.5 93.5 65.5Z" fill="black"/>
<path d="M287.844 112.454C291.708 115.514 291.144 115.811 292.492 117.523C292.492 117.523 292.634 119.958 285.348 116.016C280.511 113.398 278.654 110.83 279.563 109.151C280.471 107.472 284.414 110.388 287.844 112.454Z" fill="black"/>
<path d="M293.279 107.399C297.747 111.314 296.985 111.832 298.449 114.142C298.449 114.142 298.272 117.688 289.578 112.984C283.806 109.86 281.82 106.372 283.224 103.778C284.627 101.185 289.217 104.877 293.279 107.399Z" fill="black"/>
<path d="M145 56C140 64 136 72.356 136 60C136 54.5 141.977 49 147.5 49C153.023 49 147.5 52 145 56Z" fill="black"/>
<path d="M134 109.5C132.5 115.5 140.5 120.5 136.5 120.5C118.389 120.5 133.5 96 135.5 98C137.5 100 135.144 104.924 134 109.5Z" fill="black"/>
<path d="M152 59C152 69 143.5 76.856 143.5 64.5C143.5 59 156.5 48.5 160 51.5C163.5 54.5 152 51.4528 152 59Z" fill="black"/>
<path d="M202.5 70.5C197.5 78.5 196 89.356 196 77C196 71.5 201.977 66 207.5 66C213.023 66 205 66.5 202.5 70.5Z" fill="black"/>
<path d="M214 78.5C208 84.5 202.5 90.856 202.5 78.5C202.5 73 208.477 67.5 214 67.5C219.523 67.5 217.335 75.1646 214 78.5Z" fill="black"/>
<path d="M227 156C222 164 218 172.356 218 160C218 154.5 223.977 149 229.5 149C235.023 149 229.5 152 227 156Z" fill="black"/>
<path d="M233.76 166.5C227.26 165.5 218.125 174.598 223.76 163.824C225.76 160 230.654 153 237.025 153C243.395 153 238.582 167.242 233.76 166.5Z" fill="black"/>
</svg>
